<svg xmlns="http://www.w3.org/2000/svg" width="12" height="12" viewBox="0 0 12 12">
  <defs>
    <style>
      .cls-1 {
        fill: #ebecf5;
        fill-rule: evenodd;
      }
    </style>
  </defs>
  <path id="Phone_Icon_White" data-name="Phone Icon White" class="cls-1" d="M1078.84,47.746a2.223,2.223,0,0,0-.26-0.972,3.932,3.932,0,0,0-.52-0.754,3.692,3.692,0,0,0-.6-0.537c-0.22-.162-0.38-0.273-0.47-0.333a0.792,0.792,0,0,0-.24-0.115,0.372,0.372,0,0,0-.23-0.026,4.844,4.844,0,0,0-1.1.307,2.775,2.775,0,0,0-.73.409,2.705,2.705,0,0,0-.42.447,2.64,2.64,0,0,0-.22.332,0.362,0.362,0,0,0-.04.166,0.448,0.448,0,0,0,0,.23,20.275,20.275,0,0,0,1.28,3.042,16.6,16.6,0,0,0,1.46,2.352,11.039,11.039,0,0,0,1.63,1.738,16.857,16.857,0,0,0,1.59,1.227,10.8,10.8,0,0,0,1.52.818c0.57,0.256.99,0.426,1.25,0.511s0.59,0.179.99,0.281q0.255,0.077.33,0.1a0.286,0.286,0,0,0,.13.026,0.265,0.265,0,0,0,.15-0.051,0.957,0.957,0,0,0,.18-0.089,3.343,3.343,0,0,0,.34-0.269,2.4,2.4,0,0,0,.44-0.473,3.739,3.739,0,0,0,.39-0.729,4.4,4.4,0,0,0,.31-1.022,0.772,0.772,0,0,0-.05-0.256l-0.09-.153a3.365,3.365,0,0,0-.28-0.345,3.807,3.807,0,0,0-.49-0.46,3.757,3.757,0,0,0-.71-0.447,4.513,4.513,0,0,0-.96-0.358,0.438,0.438,0,0,0-.38.077,4.494,4.494,0,0,1-1.74,1.1,7.722,7.722,0,0,1-2.56-1.994,4.8,4.8,0,0,1-1.12-1.764,1.921,1.921,0,0,1,.33-0.677,7.368,7.368,0,0,1,.79-1.035A0.323,0.323,0,0,0,1078.84,47.746Z" transform="translate(-1074 -45)"/>
</svg>
